REM DIRINDEX 1\8,1\2\11,1\3\12,1\3\14,1\5\15,1\5\16,1\6\17,1\6\18,1\4\19,1\4\20,1\4\21,1\4\22,1\7\23,1\7\24,1\7\25,1\2\9\26,1\2\9\27,1\2\10\28,1\2\10\29,1\2\10\30,1\2\10\31,1\2\10\32,1\3\13\33,1\3\13\34,1\3\13\35
REM DIRNAME folder01,folder02,folder03,folder04,folder05,folder06,folder07,folder08,folder09,folder10,folder11,folder12,folder13,folder14,folder15,folder16,folder17,folder18,folder19,folder20,folder21,folder22,folder23,folder24,folder25,folder26,folder27,folder28,folder29,folder30,folder31,folder32,folder33,folder34,folder35
TITLE ""
FILE "107 107_UNIT5_SET5.mp3" MP3
  TRACK 01 AUDIO
    TITLE "14:cjc123_1910"
    INDEX 01 00:00:00
  TRACK 02 AUDIO
    TITLE "0:"
    INDEX 01 00:02:55
  TRACK 03 AUDIO
    TITLE "33:cjc123_1911"
    INDEX 01 00:03:33
  TRACK 04 AUDIO
    TITLE "0:"
    INDEX 01 00:04:68
  TRACK 05 AUDIO
    TITLE "34:cjc123_1912"
    INDEX 01 00:05:22
  TRACK 06 AUDIO
    TITLE "0:"
    INDEX 01 00:06:63
  TRACK 07 AUDIO
    TITLE "35:cjc123_1913"
    INDEX 01 00:07:33
  TRACK 08 AUDIO
    TITLE "0:"
    INDEX 01 00:11:39
  TRACK 09 AUDIO
    TITLE "33:cjc123_1914"
    INDEX 01 00:12:12
  TRACK 10 AUDIO
    TITLE "0:"
    INDEX 01 00:13:47
  TRACK 11 AUDIO
    TITLE "34:cjc123_1915"
    INDEX 01 00:14:02
  TRACK 12 AUDIO
    TITLE "0:"
    INDEX 01 00:15:32
  TRACK 13 AUDIO
    TITLE "35:cjc123_1916"
    INDEX 01 00:16:06
  TRACK 14 AUDIO
    TITLE "0:"
    INDEX 01 00:21:25
  TRACK 15 AUDIO
    TITLE "33:cjc123_1917"
    INDEX 01 00:22:09
  TRACK 16 AUDIO
    TITLE "0:"
    INDEX 01 00:23:24
  TRACK 17 AUDIO
    TITLE "34:cjc123_1918"
    INDEX 01 00:23:48
  TRACK 18 AUDIO
    TITLE "0:"
    INDEX 01 00:25:05
  TRACK 19 AUDIO
    TITLE "35:cjc123_1919"
    INDEX 01 00:25:58
  TRACK 20 AUDIO
    TITLE "0:"
    INDEX 01 00:33:17
  TRACK 21 AUDIO
    TITLE "33:cjc123_1920"
    INDEX 01 00:34:10
  TRACK 22 AUDIO
    TITLE "0:"
    INDEX 01 00:35:31
  TRACK 23 AUDIO
    TITLE "34:cjc123_1921"
    INDEX 01 00:35:61
  TRACK 24 AUDIO
    TITLE "0:"
    INDEX 01 00:37:05
  TRACK 25 AUDIO
    TITLE "35:cjc123_1922"
    INDEX 01 00:37:54
  TRACK 26 AUDIO
    TITLE "0:"
    INDEX 01 00:41:73
  TRACK 27 AUDIO
    TITLE "33:cjc123_1923"
    INDEX 01 00:42:47
  TRACK 28 AUDIO
    TITLE "0:"
    INDEX 01 00:43:60
  TRACK 29 AUDIO
    TITLE "34:cjc123_1924"
    INDEX 01 00:44:11
  TRACK 30 AUDIO
    TITLE "0:"
    INDEX 01 00:45:26
  TRACK 31 AUDIO
    TITLE "35:cjc123_1925"
    INDEX 01 00:46:04
  TRACK 32 AUDIO
    TITLE "0:"
    INDEX 01 00:53:31
  TRACK 33 AUDIO
    TITLE "33:cjc123_1926"
    INDEX 01 00:54:17
  TRACK 34 AUDIO
    TITLE "0:"
    INDEX 01 00:55:18
  TRACK 35 AUDIO
    TITLE "34:cjc123_1927"
    INDEX 01 00:55:57
  TRACK 36 AUDIO
    TITLE "0:"
    INDEX 01 00:56:51
  TRACK 37 AUDIO
    TITLE "35:cjc123_1928"
    INDEX 01 00:57:25
  TRACK 38 AUDIO
    TITLE "0:"
    INDEX 01 01:03:35
  TRACK 39 AUDIO
    TITLE "33:cjc123_1929"
    INDEX 01 01:04:13
  TRACK 40 AUDIO
    TITLE "0:"
    INDEX 01 01:05:30
  TRACK 41 AUDIO
    TITLE "34:cjc123_1930"
    INDEX 01 01:05:56
  TRACK 42 AUDIO
    TITLE "0:"
    INDEX 01 01:07:00
  TRACK 43 AUDIO
    TITLE "35:cjc123_1931"
    INDEX 01 01:07:49
  TRACK 44 AUDIO
    TITLE "0:"
    INDEX 01 01:11:51
  TRACK 45 AUDIO
    TITLE "33:cjc123_1932"
    INDEX 01 01:12:38
  TRACK 46 AUDIO
    TITLE "0:"
    INDEX 01 01:13:49
  TRACK 47 AUDIO
    TITLE "34:cjc123_1933"
    INDEX 01 01:13:63
  TRACK 48 AUDIO
    TITLE "0:"
    INDEX 01 01:14:59
  TRACK 49 AUDIO
    TITLE "35:cjc123_1934"
    INDEX 01 01:15:19
  TRACK 50 AUDIO
    TITLE "0:"
    INDEX 01 01:20:38
  TRACK 51 AUDIO
    TITLE "33:cjc123_1935"
    INDEX 01 01:21:18
  TRACK 52 AUDIO
    TITLE "0:"
    INDEX 01 01:22:33
  TRACK 53 AUDIO
    TITLE "34:cjc123_1936"
    INDEX 01 01:22:60
  TRACK 54 AUDIO
    TITLE "0:"
    INDEX 01 01:23:71
  TRACK 55 AUDIO
    TITLE "35:cjc123_1937"
    INDEX 01 01:24:47
  TRACK 56 AUDIO
    TITLE "0:"
    INDEX 01 01:29:66
  TRACK 57 AUDIO
    TITLE "33:cjc123_1938"
    INDEX 01 01:30:46
  TRACK 58 AUDIO
    TITLE "0:"
    INDEX 01 01:31:49
  TRACK 59 AUDIO
    TITLE "34:cjc123_1939"
    INDEX 01 01:32:08
  TRACK 60 AUDIO
    TITLE "0:"
    INDEX 01 01:33:05
  TRACK 61 AUDIO
    TITLE "35:cjc123_1940"
    INDEX 01 01:33:50
  TRACK 62 AUDIO
    TITLE "0:"
    INDEX 01 01:36:31
  TRACK 63 AUDIO
    TITLE "33:cjc123_1941"
    INDEX 01 01:37:17
  TRACK 64 AUDIO
    TITLE "0:"
    INDEX 01 01:38:26
  TRACK 65 AUDIO
    TITLE "34:cjc123_1942"
    INDEX 01 01:38:42
  TRACK 66 AUDIO
    TITLE "0:"
    INDEX 01 01:39:49
  TRACK 67 AUDIO
    TITLE "35:cjc123_1943"
    INDEX 01 01:40:27
  TRACK 68 AUDIO
    TITLE "0:"
    INDEX 01 01:45:36
  TRACK 69 AUDIO
    TITLE "33:cjc123_1944"
    INDEX 01 01:46:18
  TRACK 70 AUDIO
    TITLE "0:"
    INDEX 01 01:47:17
  TRACK 71 AUDIO
    TITLE "34:cjc123_1945"
    INDEX 01 01:47:37
  TRACK 72 AUDIO
    TITLE "0:"
    INDEX 01 01:48:44
  TRACK 73 AUDIO
    TITLE "35:cjc123_1946"
    INDEX 01 01:49:22
  TRACK 74 AUDIO
    TITLE "0:"
    INDEX 01 01:55:48
  TRACK 75 AUDIO
    TITLE "33:cjc123_1947"
    INDEX 01 01:56:24
  TRACK 76 AUDIO
    TITLE "0:"
    INDEX 01 01:57:49
  TRACK 77 AUDIO
    TITLE "34:cjc123_1948"
    INDEX 01 01:58:07
  TRACK 78 AUDIO
    TITLE "0:"
    INDEX 01 01:59:40
  TRACK 79 AUDIO
    TITLE "35:cjc123_1949"
    INDEX 01 02:00:08
  TRACK 80 AUDIO
    TITLE "0:"
    INDEX 01 02:04:57
  TRACK 81 AUDIO
    TITLE "33:cjc123_1950"
    INDEX 01 02:05:29
  TRACK 82 AUDIO
    TITLE "0:"
    INDEX 01 02:06:40
  TRACK 83 AUDIO
    TITLE "34:cjc123_1951"
    INDEX 01 02:07:02
  TRACK 84 AUDIO
    TITLE "0:"
    INDEX 01 02:08:13
  TRACK 85 AUDIO
    TITLE "35:cjc123_1952"
    INDEX 01 02:08:60
  TRACK 86 AUDIO
    TITLE "0:"
    INDEX 01 02:15:21
  TRACK 87 AUDIO
    TITLE "33:cjc123_1953"
    INDEX 01 02:15:72
  TRACK 88 AUDIO
    TITLE "0:"
    INDEX 01 02:17:12
  TRACK 89 AUDIO
    TITLE "34:cjc123_1954"
    INDEX 01 02:17:32
  TRACK 90 AUDIO
    TITLE "0:"
    INDEX 01 02:18:47
  TRACK 91 AUDIO
    TITLE "35:cjc123_1955"
    INDEX 01 02:19:25
  TRACK 92 AUDIO
    TITLE "0:"
    INDEX 01 02:25:10
